<svg xmlns="http://www.w3.org/2000/svg" width="142.948" height="47.689" viewBox="0 0 142.948 47.689"><defs><style>.a{fill:#f77e0b;}</style></defs><g transform="translate(-2274.646 367.394)"><g transform="translate(2282.292 -357.349)"><path class="a" d="M0,0,13.67-.019l0,2.186L0,2.186Z" transform="translate(0.11 13.681) rotate(-90.383)"/></g><g transform="translate(2281.042 -360.475)"><ellipse class="a" cx="2.276" cy="2.25" rx="2.276" ry="2.25"/></g><g transform="translate(2284.539 -353.023)"><g transform="translate(2 0.758)"><path class="a" d="M119.122,135.814l-12.784,9.391-1.311-1.581,12.784-9.391Z" transform="translate(-105.027 -134.233)"/></g><g transform="translate(12.017)"><ellipse class="a" cx="2.276" cy="2.25" rx="2.276" ry="2.25"/></g></g><g transform="translate(2282.041 -359.488)"><ellipse class="a" cx="1.278" cy="1.263" rx="1.278" ry="1.263"/></g><g transform="translate(2297.554 -352.036)"><ellipse class="a" cx="1.278" cy="1.263" rx="1.278" ry="1.263"/></g><path class="a" d="M73.439,168.04a9.845,9.845,0,0,1-.674,3.684,8.562,8.562,0,0,1-4.886,4.871,10.168,10.168,0,0,1-3.791.687,8.216,8.216,0,0,1-3.643-.77,5.429,5.429,0,0,1-2.169-1.644,2.126,2.126,0,0,0,.021.312,2.564,2.564,0,0,1,.021.354v9.784H54.275V159.131H58.15a8.078,8.078,0,0,0,.084,1.166,7.64,7.64,0,0,1,.084,1.083,8.291,8.291,0,0,1,.864-.9,6.092,6.092,0,0,1,1.285-.874,9.088,9.088,0,0,1,1.706-.666,7.579,7.579,0,0,1,2.085-.271,10.416,10.416,0,0,1,3.748.645,7.97,7.97,0,0,1,2.885,1.874,8.7,8.7,0,0,1,1.874,2.956A10.651,10.651,0,0,1,73.439,168.04Zm-4.38-.083a5.539,5.539,0,0,0-1.369-3.851,4.869,4.869,0,0,0-3.812-1.519,6.078,6.078,0,0,0-2.232.4,5.1,5.1,0,0,0-1.748,1.124,5.344,5.344,0,0,0-1.158,1.707,5.256,5.256,0,0,0-.421,2.1,5.51,5.51,0,0,0,.421,2.165,5.275,5.275,0,0,0,1.158,1.728,5.35,5.35,0,0,0,1.748,1.145,5.8,5.8,0,0,0,2.232.416,5.5,5.5,0,0,0,2.19-.416,4.44,4.44,0,0,0,1.621-1.166,5.463,5.463,0,0,0,1.011-1.728A6.08,6.08,0,0,0,69.059,167.957Z" transform="translate(2220.371 -505.023)"/><path class="a" d="M184.639,179.132H181.27l-.505-4.913a9.633,9.633,0,0,1-2.675,3.518,6.861,6.861,0,0,1-4.486,1.395,6.4,6.4,0,0,1-4.4-1.436,5.1,5.1,0,0,1-1.706-3.809V161.022h4.043v10.991a3.463,3.463,0,0,0,.905,2.186,3.659,3.659,0,0,0,2.633.978,5.8,5.8,0,0,0,2.232-.416,5.194,5.194,0,0,0,1.748-1.166,5.431,5.431,0,0,0,1.158-1.79,5.943,5.943,0,0,0,.421-2.248v-8.535h4Z" transform="translate(2129.219 -506.914)"/><path class="a" d="M276.61,159.131h3.58q.041.749.084,1.332t.084,1.1q.041.521.084,1.02t.084,1.082a10.366,10.366,0,0,1,2.548-3.6,6.344,6.344,0,0,1,4.233-1.395,6.418,6.418,0,0,1,4.233,1.311,5.237,5.237,0,0,1,1.874,3.435,12.864,12.864,0,0,1,1.137-1.915,7.636,7.636,0,0,1,1.411-1.5,6.013,6.013,0,0,1,1.79-.979,7.146,7.146,0,0,1,2.359-.354,6.367,6.367,0,0,1,4.422,1.478A5.2,5.2,0,0,1,306.262,164v12.823h-4.043V165.876a3.714,3.714,0,0,0-.885-2.227,3.545,3.545,0,0,0-2.654-1.02,4.793,4.793,0,0,0-3.854,1.6,6.092,6.092,0,0,0-1.369,4.1v8.493h-4.043V165.876a3.647,3.647,0,0,0-.906-2.227,3.564,3.564,0,0,0-2.632-1.02,4.793,4.793,0,0,0-3.854,1.6,6.03,6.03,0,0,0-1.369,4.059v8.535H276.61Z" transform="translate(2041.375 -505.023)"/><path class="a" d="M468.414,168.04a9.85,9.85,0,0,1-.674,3.684,8.564,8.564,0,0,1-4.886,4.871,10.168,10.168,0,0,1-3.791.687,8.215,8.215,0,0,1-3.643-.77,5.428,5.428,0,0,1-2.169-1.644,2.13,2.13,0,0,0,.021.312,2.531,2.531,0,0,1,.021.354v9.784H449.25V159.131h3.875a8.035,8.035,0,0,0,.084,1.166,7.673,7.673,0,0,1,.084,1.083,8.274,8.274,0,0,1,.864-.9,6.09,6.09,0,0,1,1.284-.874,9.089,9.089,0,0,1,1.706-.666,7.582,7.582,0,0,1,2.085-.271,10.416,10.416,0,0,1,3.748.645,7.971,7.971,0,0,1,2.885,1.874,8.7,8.7,0,0,1,1.874,2.956A10.656,10.656,0,0,1,468.414,168.04Zm-4.38-.083a5.539,5.539,0,0,0-1.369-3.851,4.869,4.869,0,0,0-3.812-1.519,6.079,6.079,0,0,0-2.232.4,5.105,5.105,0,0,0-1.748,1.124,5.345,5.345,0,0,0-1.158,1.707,5.255,5.255,0,0,0-.421,2.1,5.509,5.509,0,0,0,.421,2.165,5.276,5.276,0,0,0,1.158,1.728,5.351,5.351,0,0,0,1.748,1.145,5.8,5.8,0,0,0,2.232.416,5.5,5.5,0,0,0,2.19-.416,4.442,4.442,0,0,0,1.621-1.166,5.465,5.465,0,0,0,1.011-1.728A6.081,6.081,0,0,0,464.034,167.957Z" transform="translate(1902.388 -505.023)"/><path class="a" d="M576.007,99.393l2.4,2.331q-1.6,1.458-3.054,2.852t-3.054,2.852q1.9,2.5,3.706,5.038t3.707,5.038h-4.633q-1.39-1.873-2.822-3.726t-2.78-3.726l-2.317,2.082V117.5h-4.043V84.988h4.043v22.523q2.274-2.123,4.422-4.059T576.007,99.393Z" transform="translate(1810.715 -445.701)"/><path class="a" d="M655.381,115.465a2.287,2.287,0,0,1,.8-1.79,2.562,2.562,0,0,1,1.727-.708,2.489,2.489,0,0,1,1.706.708,2.47,2.47,0,0,1,0,3.6,2.528,2.528,0,0,1-1.706.687,2.6,2.6,0,0,1-1.727-.687A2.27,2.27,0,0,1,655.381,115.465Zm4.507,24.563h-4.044V122.334h4.044Z" transform="translate(1736.437 -468.226)"/><path class="a" d="M699.674,159.131h3.538q.084,1.5.19,2.436t.189,2.1a8.985,8.985,0,0,1,2.738-3.622,6.993,6.993,0,0,1,4.423-1.374,6.226,6.226,0,0,1,4.359,1.478A5.239,5.239,0,0,1,716.816,164v12.823h-4V165.876a3.334,3.334,0,0,0-3.538-3.247,5.711,5.711,0,0,0-2.253.437,5.4,5.4,0,0,0-1.769,1.187,5.157,5.157,0,0,0-1.137,1.79,6.2,6.2,0,0,0-.4,2.248v8.535h-4.043Z" transform="translate(1700.778 -505.023)"/><path class="a" d="M227.317,50.716h2.85v5.515h3.33v2.55h-3.33V68.834h-2.85V58.782h-2.16v-2.55h2.16Z" transform="translate(2082.799 -418.11)"/><path class="a" d="M285.242,88.936a6.773,6.773,0,0,1-2.25,1.3,7.936,7.936,0,0,1-2.7.474,6.834,6.834,0,0,1-2.655-.519,6.694,6.694,0,0,1-2.16-1.423,6.915,6.915,0,0,1-1.455-2.105,6.361,6.361,0,0,1,0-5.13,6.921,6.921,0,0,1,1.455-2.105,6.8,6.8,0,0,1,2.13-1.424,6.468,6.468,0,0,1,2.565-.519,5.953,5.953,0,0,1,3.8,1.29,6.983,6.983,0,0,1,2.325,3.4q-.9.327-2.085.786t-2.475.964q-1.29.5-2.58,1.023t-2.37.934a4.027,4.027,0,0,0,1.41,1.483,3.762,3.762,0,0,0,2.04.564,4.682,4.682,0,0,0,1.575-.282,3.7,3.7,0,0,0,1.3-.756Zm-2.52-7.413a2.183,2.183,0,0,0-1.08-.964,3.536,3.536,0,0,0-1.41-.311,3.9,3.9,0,0,0-2.76,1.142,4.034,4.034,0,0,0-.81,1.186,3.325,3.325,0,0,0-.3,1.379v.119q.749-.3,1.6-.638t1.71-.7q.855-.356,1.635-.667T282.722,81.523Z" transform="translate(2043.893 -439.665)"/><path class="a" d="M346.431,84.1a6.388,6.388,0,0,1,.54-2.595,7,7,0,0,1,1.455-2.15,7.1,7.1,0,0,1,2.13-1.468,6.166,6.166,0,0,1,2.565-.549,5.478,5.478,0,0,1,1.62.222,6.356,6.356,0,0,1,1.245.519,3.617,3.617,0,0,1,.825.608,2.349,2.349,0,0,1,.39.489l.12-1.512h2.79v12.6H357.2v-.83a2.447,2.447,0,0,1,.015-.282c.01-.089.015-.153.015-.193a4.944,4.944,0,0,1-.42.43,3.664,3.664,0,0,1-.81.549,6.144,6.144,0,0,1-1.215.46,6.241,6.241,0,0,1-1.635.193,6.708,6.708,0,0,1-2.7-.534,6.9,6.9,0,0,1-2.13-1.423,6.346,6.346,0,0,1-1.89-4.537Zm2.91-.178a4.1,4.1,0,0,0,.285,1.542,3.573,3.573,0,0,0,.81,1.231,3.808,3.808,0,0,0,1.245.815,4.409,4.409,0,0,0,3.18,0,3.7,3.7,0,0,0,1.245-.83,3.748,3.748,0,0,0,.81-1.245,4.033,4.033,0,0,0,.285-1.512,3.92,3.92,0,0,0-.285-1.5,3.47,3.47,0,0,0-.81-1.2,3.953,3.953,0,0,0-1.245-.8,4.141,4.141,0,0,0-1.59-.3,4.333,4.333,0,0,0-1.59.282,3.6,3.6,0,0,0-2.055,2.017A3.91,3.91,0,0,0,349.341,83.921Z" transform="translate(1985.164 -439.542)"/><path class="a" d="M434.771,77.664h2.55q.03.534.06.949t.06.786q.03.371.06.727t.06.771a7.391,7.391,0,0,1,1.815-2.565,4.52,4.52,0,0,1,3.015-.993,4.573,4.573,0,0,1,3.015.934,3.732,3.732,0,0,1,1.335,2.446,9.152,9.152,0,0,1,.81-1.364,5.439,5.439,0,0,1,1-1.068,4.281,4.281,0,0,1,1.275-.7,5.092,5.092,0,0,1,1.68-.252,4.536,4.536,0,0,1,3.15,1.053,3.707,3.707,0,0,1,1.23,2.743v9.133h-2.88v-7.8a2.645,2.645,0,0,0-.63-1.587,2.525,2.525,0,0,0-1.89-.726,3.414,3.414,0,0,0-2.745,1.142,4.339,4.339,0,0,0-.975,2.921v6.049h-2.88v-7.8a2.6,2.6,0,0,0-.645-1.587,2.539,2.539,0,0,0-1.875-.726,3.413,3.413,0,0,0-2.745,1.142,4.3,4.3,0,0,0-.975,2.891v6.079h-2.88Z" transform="translate(1914.044 -439.542)"/></g></svg>